<?xml version="1.0" encoding="UTF-8" standalone="no"?>
<svg
   version="1.0"
   width="256pt"
   height="256pt"
   viewBox="0 0 256 256"
   preserveAspectRatio="xMidYMid"
   id="svg20"
   sodipodi:docname="players.svg"
   inkscape:version="1.2.2 (732a01da63, 2022-12-09)"
   xmlns:inkscape="http://www.inkscape.org/namespaces/inkscape"
   xmlns:sodipodi="http://sodipodi.sourceforge.net/DTD/sodipodi-0.dtd"
   xmlns="http://www.w3.org/2000/svg"
   xmlns:svg="http://www.w3.org/2000/svg">
  <defs
     id="defs24" />
  <sodipodi:namedview
     id="namedview22"
     pagecolor="#ffffff"
     bordercolor="#000000"
     borderopacity="0.25"
     inkscape:showpageshadow="2"
     inkscape:pageopacity="0.0"
     inkscape:pagecheckerboard="0"
     inkscape:deskcolor="#d1d1d1"
     inkscape:document-units="pt"
     showgrid="false"
     inkscape:zoom="2.7802734"
     inkscape:cx="152.32315"
     inkscape:cy="141.71268"
     inkscape:window-width="3840"
     inkscape:window-height="1129"
     inkscape:window-x="-8"
     inkscape:window-y="1072"
     inkscape:window-maximized="1"
     inkscape:current-layer="svg20" />
  <g
     transform="matrix(0.10866024,0,0,-0.10958315,-11.331135,268.3944)"
     fill="#000000"
     stroke="none"
     id="g18"
     style="display:inline;opacity:0.14939024">
    <path
       d="m 1210,2436 c -72,-16 -107,-35 -159,-87 -75,-76 -107,-174 -91,-277 43,-263 360,-367 549,-179 97,95 123,256 61,377 -24,46 -94,116 -140,140 -30,15 -139,42 -159,39 -3,0 -31,-6 -61,-13 z"
       id="path2"
       style="display:inline" />
    <path
       d="m 690,1827 c -227,-64 -297,-348 -125,-506 70,-63 133,-85 224,-79 87,7 138,32 147,72 13,58 42,111 89,163 45,50 46,55 40,95 -30,183 -207,303 -375,255 z"
       id="path4" />
    <path
       d="m 1715,1827 c -62,-21 -97,-42 -136,-84 -44,-45 -65,-85 -79,-147 l -10,-46 59,-58 c 60,-58 84,-100 106,-181 10,-37 18,-47 46,-57 49,-18 138,-17 195,3 67,23 154,110 177,177 51,151 -18,315 -159,377 -56,25 -149,32 -199,16 z"
       id="path6" />
    <path
       d="m 1067,1764 c -3,-3 6,-28 19,-55 14,-27 28,-72 31,-99 5,-42 9,-50 22,-44 87,36 177,43 253,20 l 46,-13 6,43 c 3,24 17,66 30,93 14,27 22,51 19,55 -8,8 -418,8 -426,0 z"
       id="path8" />
    <path
       d="m 1227,1520 c -83,-21 -162,-83 -201,-157 -38,-75 -37,-193 4,-272 90,-177 335,-216 475,-76 147,147 102,401 -86,484 -55,24 -140,34 -192,21 z"
       id="path10" />
    <path
       d="M 578,1210 C 460,1190 342,1101 294,995 260,921 249,832 252,660 l 3,-144 60,-19 c 87,-27 239,-57 323,-64 l 72,-6 v 60 c 0,196 92,357 248,434 37,19 69,35 71,36 2,1 -8,18 -23,38 -34,44 -76,138 -76,169 0,56 -1,56 -159,55 -80,-1 -167,-5 -193,-9 z"
       id="path12" />
    <path
       d="m 1667,1205 c -4,-9 -7,-29 -7,-43 0,-33 -40,-120 -76,-167 -15,-20 -25,-37 -23,-38 2,-1 34,-17 71,-36 155,-77 248,-237 248,-429 v -68 l 88,8 c 102,10 220,38 293,69 l 52,23 -5,190 c -4,163 -8,199 -26,245 -43,111 -122,191 -229,232 -48,18 -85,23 -219,27 -145,4 -162,3 -167,-13 z"
       id="path14" />
    <path
       d="M 1114,900 C 957,877 827,756 795,602 786,560 780,474 780,369 V 203 l 103,-27 c 209,-54 404,-74 567,-57 114,12 248,42 317,72 l 43,18 v 163 c 0,102 -6,188 -15,230 -33,158 -161,274 -328,299 -73,10 -280,10 -353,-1 z"
       id="path16"
       style="opacity:1" />
  </g>
</svg>
