<?xml version="1.0" encoding="UTF-8" standalone="no"?>
<svg
   class="svg-icon"
   style="overflow:hidden;fill:currentColor"
   viewBox="0 0 256 256"
   version="1.1"
   id="svg4"
   sodipodi:docname="weight.svg"
   width="256"
   height="256"
   inkscape:version="1.2.2 (732a01da63, 2022-12-09)"
   xmlns:inkscape="http://www.inkscape.org/namespaces/inkscape"
   xmlns:sodipodi="http://sodipodi.sourceforge.net/DTD/sodipodi-0.dtd"
   xmlns="http://www.w3.org/2000/svg"
   xmlns:svg="http://www.w3.org/2000/svg">
  <defs
     id="defs8">
    <rect
       x="98.191781"
       y="153.22234"
       width="64.741834"
       height="92.796628"
       id="rect3932" />
  </defs>
  <sodipodi:namedview
     id="namedview6"
     pagecolor="#ffffff"
     bordercolor="#000000"
     borderopacity="0.25"
     inkscape:showpageshadow="2"
     inkscape:pageopacity="0.0"
     inkscape:pagecheckerboard="0"
     inkscape:deskcolor="#d1d1d1"
     showgrid="false"
     inkscape:zoom="0.92675781"
     inkscape:cx="492.57745"
     inkscape:cy="166.17071"
     inkscape:window-width="3840"
     inkscape:window-height="1129"
     inkscape:window-x="-8"
     inkscape:window-y="1072"
     inkscape:window-maximized="1"
     inkscape:current-layer="svg4" />
  <path
     d="m 242.51194,114.58421 h -0.88314 v -7.53083 c 0,-7.185605 -5.82877,-13.014365 -13.01437,-13.014365 h -3.74936 v -10.47733 c 0,-7.1856 -5.83679,-13.01436 -13.01436,-13.01436 h -15.78159 c -7.1856,0 -13.00634,5.82876 -13.00634,13.01436 V 114.58421 H 73.780216 V 83.561685 c 0,-7.1856 -5.836794,-13.01436 -13.014364,-13.01436 H 44.984256 c -7.17757,0 -13.006335,5.82876 -13.006335,13.01436 v 10.47733 h -3.773442 c -7.17757,0 -13.006335,5.82876 -13.006335,13.014365 v 7.53083 h -1.710092 c -7.4344854,0 -13.4880509653128,5.97328 -13.4880509653128,13.42382 0,7.44252 6.0535655653128,13.4158 13.4880509653128,13.4158 h 1.710092 v 7.53082 c 0,7.1856 5.828765,13.01437 13.006335,13.01437 h 3.773442 v 10.46929 c 0,7.1856 5.828765,13.01436 13.006335,13.01436 h 15.781596 c 7.17757,0 13.014364,-5.82877 13.014364,-13.01436 V 141.42383 H 183.06278 v 31.01448 c 0,7.1856 5.82074,13.01436 13.00634,13.01436 h 15.78159 c 7.1856,0 13.01436,-5.82877 13.01436,-13.01436 v -10.46929 h 3.74936 c 7.1856,0 13.01437,-5.82878 13.01437,-13.01437 v -7.53082 h 0.87511 c 7.45054,0 13.49608,-5.97328 13.49608,-13.4158 0.008,-7.45054 -6.03751,-13.42382 -13.48805,-13.42382 z"
     id="path2"
     style="opacity:0.583333;stroke-width:0.250894"
     sodipodi:nodetypes="scsscssssccsssscsscssscsscssssccsssscsscscs" />
  <text
     xml:space="preserve"
     id="text3930"
     style="font-weight:bold;font-size:74.6667px;font-family:Calibri;-inkscape-font-specification:'Calibri Bold';white-space:pre;shape-inside:url(#rect3932);display:inline;opacity:0.583333;fill:#000000;fill-opacity:1;stroke-width:1.00157"
     transform="translate(10.850251,-22.659642)"><tspan
       x="98.191406"
       y="218.55602"
       id="tspan4406">5</tspan></text>
</svg>
